<svg width="22" height="22" viewBox="0 0 22 22" fill="none" xmlns="http://www.w3.org/2000/svg">
<path d="M8.19985 21.6C7.75985 21.6 7.38332 21.4434 7.07025 21.1304C6.75719 20.8173 6.60039 20.4405 6.59985 20V8.79995C6.59985 8.35995 6.75665 7.98342 7.07025 7.67035C7.38385 7.35728 7.76039 7.20048 8.19985 7.19995H19.3999C19.8399 7.19995 20.2167 7.35675 20.5303 7.67035C20.8439 7.98395 21.0004 8.36049 20.9999 8.79995V20C20.9999 20.44 20.8433 20.8168 20.5303 21.1304C20.2172 21.444 19.8404 21.6005 19.3999 21.6H8.19985ZM13.7999 18.4C14.0265 18.4 14.2167 18.3232 14.3703 18.1696C14.5239 18.016 14.6004 17.8261 14.5999 17.6C14.5993 17.3738 14.5225 17.184 14.3695 17.0304C14.2164 16.8768 14.0265 16.8 13.7999 16.8C13.5732 16.8 13.3833 16.8768 13.2303 17.0304C13.0772 17.184 13.0004 17.3738 12.9999 17.6C12.9993 17.8261 13.0761 18.0162 13.2303 18.1704C13.3844 18.3245 13.5743 18.401 13.7999 18.4ZM10.5999 18.4C10.8265 18.4 11.0167 18.3232 11.1703 18.1696C11.3239 18.016 11.4004 17.8261 11.3999 17.6C11.3993 17.3738 11.3225 17.184 11.1695 17.0304C11.0164 16.8768 10.8265 16.8 10.5999 16.8C10.3732 16.8 10.1833 16.8768 10.0303 17.0304C9.87719 17.184 9.80039 17.3738 9.79986 17.6C9.79932 17.8261 9.87612 18.0162 10.0303 18.1704C10.1844 18.3245 10.3743 18.401 10.5999 18.4ZM16.9999 18.4C17.2265 18.4 17.4167 18.3232 17.5703 18.1696C17.7239 18.016 17.8004 17.8261 17.7999 17.6C17.7993 17.3738 17.7225 17.184 17.5695 17.0304C17.4164 16.8768 17.2265 16.8 16.9999 16.8C16.7732 16.8 16.5833 16.8768 16.4303 17.0304C16.2772 17.184 16.2004 17.3738 16.1999 17.6C16.1993 17.8261 16.2761 18.0162 16.4303 18.1704C16.5844 18.3245 16.7743 18.401 16.9999 18.4Z" fill="#00FF5E"/>
<path d="M2.6 14.4C2.16 14.4 1.78347 14.2435 1.4704 13.9304C1.15733 13.6173 1.00053 13.2405 1 12.8L1 1.6C1 1.16 1.1568 0.783467 1.4704 0.4704C1.784 0.157333 2.16053 0.000533334 2.6 0L13.8 0C14.24 0 14.6168 0.1568 14.9304 0.4704C15.244 0.784001 15.4005 1.16053 15.4 1.6L15.4 12.8C15.4 13.24 15.2435 13.6168 14.9304 13.9304C14.6173 14.244 14.2405 14.4005 13.8 14.4L2.6 14.4ZM8.2 11.2C8.42667 11.2 8.61681 11.1232 8.77041 10.9696C8.92401 10.816 9.00054 10.6261 9.00001 10.4C8.99947 10.1739 8.92267 9.98401 8.76961 9.83041C8.61654 9.67681 8.42667 9.60001 8.2 9.60001C7.97334 9.60001 7.78347 9.67681 7.6304 9.83041C7.47734 9.98401 7.40054 10.1739 7.4 10.4C7.39947 10.6261 7.47627 10.8163 7.6304 10.9704C7.78454 11.1245 7.9744 11.2011 8.2 11.2ZM5 11.2C5.22667 11.2 5.4168 11.1232 5.5704 10.9696C5.724 10.816 5.80054 10.6261 5.8 10.4C5.79947 10.1739 5.72267 9.98401 5.5696 9.83041C5.41654 9.67681 5.22667 9.60001 5 9.60001C4.77334 9.60001 4.58347 9.67681 4.4304 9.83041C4.27734 9.98401 4.20054 10.1739 4.2 10.4C4.19947 10.6261 4.27627 10.8163 4.4304 10.9704C4.58454 11.1245 4.7744 11.2011 5 11.2ZM11.4 11.2C11.6267 11.2 11.8168 11.1232 11.9704 10.9696C12.124 10.816 12.2005 10.6261 12.2 10.4C12.1995 10.1739 12.1227 9.98401 11.9696 9.83041C11.8165 9.67681 11.6267 9.60001 11.4 9.60001C11.1733 9.60001 10.9835 9.67681 10.8304 9.83041C10.6773 9.98401 10.6005 10.1739 10.6 10.4C10.5995 10.6261 10.6763 10.8163 10.8304 10.9704C10.9845 11.1245 11.1744 11.2011 11.4 11.2Z" fill="white"/>
</svg>
